<?xml version="1.0" encoding="UTF-8"?>
<svg xmlns="http://www.w3.org/2000/svg" xmlns:xlink="http://www.w3.org/1999/xlink" width="300px" height="300px" viewBox="0 0 300 300" version="1.1">
<g id="surface1">
<rect x="0" y="0" width="300" height="300" style="fill:rgb(0%,0%,0%);fill-opacity:1;stroke:none;"/>
<path style=" stroke:none;fill-rule:evenodd;fill:rgb(100%,100%,100%);fill-opacity:1;" d="M 95.488281 172.15625 C 103.738281 170.582031 108.6875 162.253906 110.039062 154.226562 C 110.339844 152.203125 107.789062 151.226562 105.839844 152.128906 C 104.113281 152.953125 103.363281 153.554688 101.113281 155.351562 C 96.910156 158.730469 94.285156 163.226562 93.238281 168.628906 C 92.863281 170.433594 94.289062 172.382812 95.488281 172.15625 Z M 153.28125 173.582031 C 155.421875 174.183594 157.144531 172.382812 157.667969 170.734375 C 158.71875 167.207031 158.117188 163.308594 156.769531 160.082031 C 156.167969 160.601562 151.59375 166.082031 150.09375 168.105469 C 149.195312 169.308594 150.917969 172.90625 153.28125 173.582031 Z M 206.125 170.804688 C 206.652344 172.679688 209.125 172.382812 210.472656 171.78125 C 217.226562 168.78125 221.953125 160.984375 222.324219 153.703125 C 222.402344 152.207031 220.300781 151.457031 218.652344 152.054688 C 214.675781 153.554688 211.976562 156.40625 209.5 160.003906 C 207.175781 163.308594 205.148438 166.90625 206.125 170.804688 Z M 267.859375 153.179688 C 267.933594 153.40625 274.609375 148.082031 278.734375 142.90625 C 282.789062 137.726562 284.734375 132.175781 284.734375 132.175781 C 284.734375 132.175781 280.160156 135.554688 275.886719 140.726562 C 270.78125 147.027344 267.859375 153.179688 267.859375 153.179688 Z M 133.441406 144.03125 L 133.589844 143.804688 C 135.390625 141.328125 136.066406 137.878906 133.667969 136.679688 C 133.367188 136.527344 132.839844 137.503906 132.691406 138.179688 C 132.089844 140.203125 132.242188 142.226562 133.441406 144.03125 Z M 129.765625 149.699219 C 127.441406 145.421875 126.3125 140.503906 128.265625 136.003906 C 130.140625 131.578125 136.890625 129.929688 139.367188 134.878906 C 142.144531 140.429688 138.167969 145.230469 136.964844 147.480469 C 136.589844 148.15625 140.117188 147.179688 141.46875 147.179688 C 144.167969 147.03125 145.742188 149.734375 144.46875 151.832031 C 140.269531 158.582031 133.292969 163.386719 132.394531 171.484375 C 132.167969 173.511719 137.265625 172.457031 143.347656 167.359375 C 143.496094 167.207031 154.296875 154.007812 162.546875 143.882812 C 164.421875 141.628906 170.722656 143.957031 168.695312 146.957031 C 166.898438 149.582031 165.097656 151.605469 163.972656 153.183594 C 162.394531 155.511719 166.449219 157.085938 166.070312 165.933594 C 169.148438 163.535156 174.097656 160.308594 174.25 160.082031 C 179.425781 149.28125 184.902344 136.753906 190 125.652344 C 191.273438 122.878906 198.179688 124.304688 196.597656 127.828125 C 193.320312 135.292969 190.117188 142.796875 187 150.332031 C 186.851562 150.628906 192.476562 147.027344 193 146.804688 C 196.902344 145.53125 198.546875 148.976562 199.148438 151.457031 C 200.5 157.230469 194.347656 165.03125 191.421875 170.582031 C 190.671875 171.933594 192.402344 171.257812 193.074219 170.808594 C 195.175781 169.535156 198.625 166.308594 198.699219 166.007812 C 203.726562 152.429688 220.304688 141.707031 226.605469 149.65625 C 227.054688 148.980469 227.730469 147.929688 227.804688 147.855469 C 229.226562 146.429688 235.003906 146.878906 234.101562 149.582031 C 234.101562 149.734375 228.101562 161.507812 225.027344 167.511719 C 224.351562 168.859375 225.101562 172.609375 227.054688 171.183594 C 230.128906 169.007812 234.628906 164.355469 234.777344 163.832031 C 238.304688 153.859375 250.007812 133.601562 265.609375 125.277344 C 268.234375 123.925781 273.183594 125.578125 271.609375 129.851562 C 266.175781 144.214844 259.785156 150.53125 250.160156 157.660156 C 249.984375 157.789062 249.871094 157.855469 249.753906 157.9375 C 247.726562 159.355469 241.820312 162.839844 241.53125 164.058594 C 241.53125 164.285156 240.257812 168.253906 240.929688 170.207031 C 241.90625 173.207031 244.90625 172.835938 247.082031 171.257812 C 255.179688 165.40625 258.257812 156.332031 263.433594 148.082031 C 267.632812 141.402344 272.210938 135.707031 278.886719 130.378906 C 281.960938 127.902344 285.035156 124.601562 289.085938 125.128906 C 290.886719 125.351562 291.863281 127.226562 291.640625 128.429688 C 288.5625 141.027344 280.988281 149.355469 273.183594 155.734375 C 269.585938 158.65625 265.988281 161.207031 262.761719 163.53125 C 261.933594 164.132812 259.910156 175.386719 268.160156 171.480469 C 272.136719 169.609375 276.183594 163.757812 278.585938 160.832031 C 279.789062 159.332031 281.886719 161.355469 280.914062 163.382812 C 278.4375 168.332031 275.136719 172.457031 270.636719 175.90625 C 267.335938 178.535156 263.210938 179.808594 259.308594 178.234375 C 256.308594 177.035156 255.257812 173.957031 254.433594 171.332031 C 251.507812 174.707031 247.457031 177.558594 243.179688 178.757812 C 236.503906 180.632812 233.808594 175.832031 233.730469 171.933594 C 229.53125 175.304688 221.503906 183.78125 217.453125 174.859375 C 212.878906 177.40625 204.628906 182.878906 199.078125 173.730469 C 195.25 176.28125 190.902344 180.78125 186.550781 178.003906 C 183.699219 176.207031 182.425781 172.980469 183.777344 170.058594 C 186.175781 164.878906 190.824219 156.476562 191.125 155.957031 C 191.726562 154.902344 190.152344 154.304688 189.25 155.054688 C 185.425781 158.128906 182.347656 160.601562 182.199219 160.980469 C 180.25 165.257812 176.722656 172.90625 174.777344 177.03125 C 173.652344 179.507812 169 179.429688 167.800781 177.632812 C 166.074219 175.082031 168.476562 172.679688 169.523438 170.351562 C 164.273438 173.878906 160.597656 177.78125 154.972656 178.753906 C 150.546875 179.582031 145.746094 177.707031 144.019531 173.503906 C 138.769531 176.28125 132.84375 181.453125 127.292969 177.257812 C 122.492188 173.65625 124.964844 164.652344 136.070312 153.925781 C 136.28125 153.710938 136.28125 153.507812 136.070312 153.328125 L 134.34375 152.652344 C 130.292969 158.203125 121.441406 171.707031 115.964844 175.378906 C 110.042969 179.28125 106.140625 180.332031 103.441406 175.457031 C 97.441406 179.730469 89.488281 180.480469 86.265625 173.730469 L 86.1875 173.804688 C 81.839844 177.257812 78.464844 179.878906 71.335938 178.53125 C 67.886719 177.855469 66.085938 174.628906 65.710938 171.40625 C 65.183594 166.230469 66.085938 160.980469 66.761719 155.878906 C 62.335938 163.453125 58.058594 171.929688 51.835938 178.382812 C 50.707031 179.429688 47.035156 178.679688 47.410156 176.65625 C 48.910156 168.179688 53.558594 156.40625 53.035156 148.527344 C 46.730469 162.179688 37.28125 183.859375 18.453125 177.554688 C 5.253906 173.128906 8.328125 149.203125 26.855469 156.554688 C 29.03125 157.453125 27.757812 161.429688 25.808594 160.679688 C 16.804688 157.082031 14.78125 171.929688 23.929688 172.53125 C 29.707031 172.902344 33.683594 169.226562 35.558594 166.304688 C 47.710938 147.777344 51.382812 129.921875 65.632812 108.472656 C 67.585938 105.472656 72.613281 108.546875 70.960938 111.773438 C 68.636719 116.273438 66.613281 121.296875 64.660156 127.597656 C 62.484375 134.722656 61.285156 141.324219 61.359375 148.601562 C 71.183594 134.046875 80.710938 119.796875 94.363281 108.019531 C 94.964844 107.496094 96.238281 107.644531 97.0625 107.945312 C 98.488281 108.394531 98.714844 110.121094 98.035156 111.097656 C 83.710938 133.527344 70.058594 156.476562 73.285156 170.128906 C 74.035156 173.054688 75.910156 172.453125 78.238281 172.082031 C 80.484375 171.707031 85.8125 167.128906 86.261719 166.003906 C 89.636719 157.082031 96.464844 149.878906 105.765625 147.554688 C 108.839844 146.726562 111.992188 147.476562 114.316406 149.65625 C 115.589844 147.027344 119.265625 146.652344 121.066406 148.601562 C 121.441406 149.054688 121.367188 150.179688 121.066406 150.78125 C 117.691406 157.15625 114.765625 162.78125 111.390625 168.78125 C 111.164062 169.230469 111.6875 170.207031 112.4375 169.980469 C 117.390625 168.40625 124.066406 158.023438 129.765625 149.699219 Z M 246.855469 153.519531 C 247.003906 153.628906 253.15625 149.355469 257.28125 144.554688 C 260.582031 140.726562 264.855469 132.476562 264.628906 132.179688 C 264.257812 132.027344 259.457031 136.457031 255.105469 141.402344 C 251.808594 145.226562 246.855469 153.476562 246.855469 153.519531 Z M 246.855469 153.519531 "/>
</g>
</svg>
